<svg width="350" height="350" viewBox="0 0 350 350" fill="none" xmlns="http://www.w3.org/2000/svg">
    <path d="M129.533 222.298C123.308 223.779 117.133 225.411 111.093 227.258C101.69 218.291 103.927 212.96 103.927 212.96C105.065 208.503 110.02 206.407 113.996 207.489C117.972 208.572 121.091 211.937 123.791 215.378C124.168 215.858 124.542 216.344 124.917 216.831C126.386 218.738 127.864 220.656 129.533 222.298Z" fill="#0C296E" stroke="#0C296E" stroke-linejoin="round" />
    <path d="M207.154 184.141C207.005 172.147 206.269 169.304 201.221 152.752C195.11 153.153 187.193 152.524 178.577 151.493C174.074 156.113 169.785 161.208 165.227 166.621C159.498 173.424 153.347 180.731 145.816 188.229C140.231 193.789 131.659 197.391 123.117 200.981C117.819 203.207 112.532 205.428 107.977 208.109C106.818 208.678 105.79 209.508 105.032 210.576C104.487 211.329 104.135 212.128 103.93 212.96C104.157 212.069 104.537 211.272 105.032 210.576C105.462 209.981 106.014 209.414 106.709 208.879C107.125 208.618 107.547 208.361 107.977 208.109C109.838 207.194 112.038 206.955 113.999 207.489C117.975 208.571 121.094 211.937 123.794 215.378C124.171 215.858 124.545 216.344 124.92 216.831C126.389 218.737 127.867 220.656 129.535 222.297C135.833 220.798 142.183 219.455 148.499 218.2C152.905 217.325 157.333 216.476 161.768 215.627C176.921 212.724 192.143 209.808 206.754 205.762C207.053 197.989 207.232 190.496 207.154 184.141Z" fill="#14C0FF" />
    <path d="M166.167 213.289C171.378 208.368 176.593 203.443 181.805 198.521" stroke="#0C296E" stroke-linecap="round" stroke-linejoin="round" />
    <mask id="path-4-inside-1" fill="white">
        <path d="M326.519 48.8887C328.118 49.8555 329.771 50.3934 330.857 51.2753L314.51 88.3429C314.51 88.3429 296.601 75.2921 272.605 69.6017C273.58 65.8258 274.123 63.5733 274.123 63.5733" />
    </mask>
    <path d="M327.036 48.0328C326.563 47.7472 325.949 47.8988 325.663 48.3714C325.377 48.8441 325.529 49.4589 326.002 49.7445L327.036 48.0328ZM330.857 51.2753L331.772 51.6788C331.954 51.2663 331.837 50.7832 331.487 50.499L330.857 51.2753ZM314.51 88.3429L313.921 89.151C314.166 89.3292 314.478 89.3871 314.77 89.3085C315.062 89.2299 315.303 89.0232 315.425 88.7464L314.51 88.3429ZM272.605 69.6017L271.637 69.3515C271.57 69.6117 271.61 69.8879 271.749 70.118C271.887 70.3481 272.113 70.5127 272.374 70.5747L272.605 69.6017ZM275.095 63.8073C275.224 63.2704 274.894 62.7303 274.357 62.6011C273.82 62.4719 273.28 62.8024 273.15 63.3393L275.095 63.8073ZM326.002 49.7445C326.85 50.2575 327.718 50.6589 328.442 51.0124C329.196 51.3806 329.783 51.6917 330.226 52.0516L331.487 50.499C330.844 49.977 330.063 49.5782 329.319 49.2152C328.546 48.8375 327.787 48.4867 327.036 48.0328L326.002 49.7445ZM329.942 50.8718L313.595 87.9394L315.425 88.7464L331.772 51.6788L329.942 50.8718ZM314.51 88.3429C315.099 87.5347 315.099 87.5345 315.099 87.5343C315.098 87.5342 315.098 87.5339 315.098 87.5336C315.097 87.5331 315.096 87.5323 315.094 87.5313C315.092 87.5294 315.088 87.5267 315.083 87.5232C315.074 87.5163 315.06 87.5062 315.041 87.4931C315.005 87.4669 314.951 87.4285 314.881 87.3787C314.74 87.2789 314.532 87.1331 314.259 86.9463C313.714 86.5726 312.912 86.0345 311.875 85.3721C309.802 84.0474 306.791 82.2244 303.026 80.2232C295.499 76.2229 284.941 71.4993 272.836 68.6286L272.374 70.5747C284.265 73.3944 294.66 78.0415 302.087 81.9892C305.798 83.962 308.764 85.7573 310.798 87.0574C311.816 87.7074 312.6 88.2334 313.128 88.5957C313.392 88.7768 313.592 88.917 313.725 89.0112C313.792 89.0583 313.842 89.0939 313.875 89.1174C313.891 89.1292 313.903 89.1379 313.911 89.1436C313.915 89.1464 313.918 89.1484 313.919 89.1497C313.92 89.1503 313.921 89.1507 313.921 89.1509C313.921 89.1511 313.921 89.1511 313.921 89.1511C313.921 89.1511 313.921 89.151 314.51 88.3429ZM273.573 69.8518C274.062 67.9607 274.442 66.4507 274.7 65.4129C274.829 64.8941 274.928 64.4932 274.994 64.2218C275.027 64.0861 275.052 63.9828 275.069 63.9132C275.078 63.8785 275.084 63.8521 275.088 63.8344C275.09 63.8256 275.092 63.8189 275.093 63.8144C275.094 63.8121 275.094 63.8104 275.094 63.8092C275.094 63.8086 275.095 63.8082 275.095 63.8079C275.095 63.8077 275.095 63.8076 275.095 63.8075C275.095 63.8075 275.095 63.8074 275.095 63.8074C275.095 63.8074 275.095 63.8073 274.123 63.5733C273.15 63.3393 273.15 63.3393 273.15 63.3393C273.15 63.3393 273.15 63.3393 273.15 63.3394C273.15 63.3394 273.15 63.3395 273.15 63.3396C273.15 63.3399 273.15 63.3402 273.15 63.3407C273.15 63.3418 273.149 63.3433 273.149 63.3455C273.148 63.3497 273.146 63.3561 273.144 63.3647C273.14 63.3818 273.134 63.4076 273.126 63.4417C273.109 63.5101 273.084 63.6123 273.051 63.7467C272.985 64.0157 272.888 64.4139 272.759 64.9302C272.502 65.9626 272.124 67.4668 271.637 69.3515L273.573 69.8518Z" fill="white" mask="url(#path-4-inside-1)" />
    <path d="M274.225 22.2367C274.225 22.2367 291.872 26.6226 303.152 31.2915C313.393 35.5301 328.8 43.6861 328.8 43.6861L312.812 80.1488C312.812 80.1488 299.924 72.2702 290.88 68.3953C281.852 64.5275 266.943 60.4844 266.943 60.4844L274.225 22.2367Z" fill="#14C0FF" />
    <path d="M282.186 54.4345L286.176 38.5062C294.822 40.497 303.261 43.6025 310.322 49.1168L303.663 63.8776C297.014 59.1809 290.144 56.1428 282.186 54.4345Z" stroke="white" stroke-miterlimit="10" stroke-linecap="round" stroke-linejoin="round" />
    <path d="M308.023 54.207H316.808L312.416 63.8734L306.715 57.1087L308.023 54.207Z" stroke="white" stroke-miterlimit="10" stroke-linecap="round" stroke-linejoin="round" />
    <path d="M303.817 53.05C304.97 53.05 305.905 52.1185 305.905 50.9693C305.905 49.8202 304.97 48.8887 303.817 48.8887C302.665 48.8887 301.73 49.8202 301.73 50.9693C301.73 52.1185 302.665 53.05 303.817 53.05Z" fill="#FFC60A" stroke="#FFC60A" stroke-linecap="round" stroke-linejoin="round" />
    <path d="M272.022 31.3329C277.062 31.3329 281.147 27.2606 281.147 22.2371C281.147 17.2137 277.062 13.1414 272.022 13.1414C266.982 13.1414 262.896 17.2137 262.896 22.2371C262.896 27.2606 266.982 31.3329 272.022 31.3329Z" fill="#FFC60A" stroke="#FFC60A" stroke-linecap="round" stroke-linejoin="round" />
    <path d="M95.515 329.829C164.038 324.492 225.654 281.334 293.511 271.249C317.449 267.5 326.407 269.765 326.407 269.765C314.121 279.743 304.243 295.126 299.687 308.798C299.687 308.798 290.208 312.339 279.341 319.094C295.419 315.099 297.817 315.116 297.817 315.116L291.812 329.999H87.0503" fill="#00D6B9" />
    <path d="M120.835 325.982C165.676 324.066 216.356 309.615 259.36 296.009C272.181 291.952 293.842 286.965 308.932 289.76" stroke="#0C296E" stroke-linecap="round" stroke-linejoin="round" />
    <path d="M194.651 94.08C195.765 96.7672 197.687 100.879 200.203 102.349C200.203 102.349 196.185 109.543 180.169 109.287L180.599 109.249C175.106 109.854 166.3 106.658 167.032 104.756C180.578 91.5277 191.102 81.5673 194.651 94.08Z" fill="#0C296E" stroke="#0C296E" stroke-linejoin="round" />
    <path d="M220.543 124.399L236.711 117.683C242.822 115.241 244.806 112.81 247.547 106.844L258.505 78.2669C258.505 78.2669 261.825 76.3786 266.159 73.9749C271.377 71.0837 267.516 65.2976 265.149 63.4162L265.167 63.2675C267.176 60.9365 266.804 61.3412 269.292 58.4741C270.222 57.402 270.989 55.6589 270.635 54.9672C269.66 54.5591 266.034 58.6263 262.793 61.4103C261.86 62.2127 260.923 63.0185 260.101 63.9385C255.313 68.8599 237.003 105.855 237.003 105.855L216.708 112.167" fill="white" />
    <path d="M220.543 124.399L236.711 117.683C242.822 115.241 244.806 112.81 247.547 106.844L258.505 78.2669C258.505 78.2669 261.825 76.3786 266.159 73.9749C271.377 71.0837 267.516 65.2976 265.149 63.4162L265.167 63.2675C267.176 60.9365 266.804 61.3412 269.292 58.4741C270.222 57.402 270.989 55.6589 270.635 54.9672C269.66 54.5591 266.034 58.6263 262.793 61.4103C261.86 62.2127 260.923 63.0185 260.101 63.9385C255.313 68.8599 237.003 105.855 237.003 105.855L216.708 112.167" stroke="#0C296E" stroke-linecap="round" stroke-linejoin="round" />
    <path d="M118.667 126.851L121.315 125.822L133.817 132.588L125.286 134.059L118.667 126.851Z" fill="white" stroke="#0C296E" stroke-linecap="round" stroke-linejoin="round" />
    <path d="M118.408 125.461C116.964 126.028 116.114 126.99 118.165 130.109C120.215 133.229 121.836 135.02 123.532 135.311C125.229 135.601 132.175 135.76 133.14 134.705C134.101 133.651 138.73 142.49 138.73 142.49L150.718 164.179C153.23 168.723 159.871 168.457 162.008 163.722L168.431 150.203L157.973 143.487L155.551 154.412C151.2 148.155 143.452 138.458 138.504 132.022C138.504 132.022 134.982 127.093 126.992 125.668C120.188 124.455 117.686 124.576 117.686 124.576C118.598 126.239 121.367 127.145 124.768 127.792C124.768 127.792 126.388 131.572 130 132.807" fill="white" />
    <path d="M118.408 125.461C116.964 126.028 116.114 126.99 118.165 130.109C120.215 133.229 121.836 135.02 123.532 135.311C125.229 135.601 132.175 135.76 133.14 134.705C134.101 133.651 138.73 142.49 138.73 142.49L150.718 164.179C153.23 168.723 159.871 168.457 162.008 163.722L168.431 150.203L157.973 143.487L155.551 154.412C151.2 148.155 143.452 138.458 138.504 132.022C138.504 132.022 134.982 127.093 126.992 125.668C120.188 124.455 117.686 124.576 117.686 124.576C118.598 126.239 121.367 127.145 124.768 127.792C124.768 127.792 126.388 131.572 130 132.807" stroke="#0C296E" stroke-linecap="round" stroke-linejoin="round" />
    <path d="M117.255 128.515L122.103 128.975" stroke="#0C296E" stroke-linecap="round" stroke-linejoin="round" />
    <path d="M118.652 130.656L123.5 131.116" stroke="#0C296E" stroke-linecap="round" stroke-linejoin="round" />
    <path d="M120.385 132.811L123.837 133.14" stroke="#0C296E" stroke-linecap="round" stroke-linejoin="round" />
    <path d="M258.519 72.5873C260.208 72.5458 261.856 71.6362 262.783 70.2251C263.251 69.5161 263.553 68.6792 264.174 68.0947C264.174 68.0947 267.103 65.8363 267.266 65.0616C267.429 64.2869 263.598 65.0824 260.142 67.0572" stroke="#0C296E" stroke-linecap="round" stroke-linejoin="round" />
    <path d="M199.749 115.085C198.576 115.043 197.4 114.925 196.21 114.718C193.316 114.206 191.005 112.079 190.28 109.24C189.974 108.05 189.95 107.694 189.94 105.864L180.304 99.1099C180.447 102.745 180.134 114.196 177.775 117.412C177.178 118.228 175.225 119.439 172.9 120.743C185.193 124.274 194.541 123.036 199.749 115.085Z" fill="white" stroke="#0C296E" stroke-linecap="round" stroke-linejoin="round" />
    <path d="M194.415 94.8126C194.724 97.109 194.762 99.2256 194.224 102.072C194.051 102.982 193.694 103.843 193.111 104.565C192.056 105.876 191.06 106.744 189.95 106.81C187.903 106.935 185.654 106.571 183.097 104.648C183.097 104.648 181.747 103.189 180.842 101.432C180.842 101.432 177.632 100.063 178.847 97.7004C179.784 95.8744 181.227 97.5552 181.227 97.5552" fill="white" />
    <path d="M194.415 94.8126C194.724 97.109 194.762 99.2256 194.224 102.072C194.051 102.982 193.694 103.843 193.111 104.565C192.056 105.876 191.06 106.744 189.95 106.81C187.903 106.935 185.654 106.571 183.097 104.648C183.097 104.648 181.747 103.189 180.842 101.432C180.842 101.432 177.632 100.063 178.847 97.7004C179.784 95.8744 181.227 97.5552 181.227 97.5552L182.381 92.9516L187.327 89.7828L194.415 94.8126Z" stroke="#0C296E" stroke-linecap="round" stroke-linejoin="round" />
    <path d="M191.602 94.8114C191.865 96.0149 192.171 97.2116 192.511 98.3944C192.226 98.3459 191.945 98.2941 191.661 98.2457" stroke="#0C296E" stroke-linecap="round" stroke-linejoin="round" />
    <path d="M167.029 104.758C167.161 101.653 170.148 95.6074 171.435 93.2556C175.908 85.0867 181.921 84.2048 185.529 84.606C193.02 85.4429 194.651 94.0787 194.651 94.0787C191.341 94.224 187.243 94.8085 184.02 94.9814C184.02 94.9814 181.744 100.823 184.027 108.141C180.377 107.819 176.543 105.454 173.146 104.499C172.282 104.254 167.633 103.195 167.029 104.758Z" fill="#0C296E" stroke="#0C296E" stroke-linejoin="round" />
    <path fill-rule="evenodd" clip-rule="evenodd" d="M173.792 139.135L168.426 150.212L157.969 143.495L159.974 134.386C161.026 129.603 164.11 125.508 168.43 123.18C168.799 122.981 169.173 122.779 169.55 122.577C170.682 121.967 171.832 121.348 172.902 120.749C184.63 124.546 193.807 123.125 199.748 115.087C203.266 115.205 206.767 114.62 210.58 113.68L216.711 112.172L220.545 124.404L205.964 130.133C206.671 132.448 206.762 134.927 206.198 137.32C205.531 140.144 204.912 142.223 204.286 144.324L204.14 144.814C203.466 147.082 202.775 149.457 201.987 152.926C201.91 153.268 201.617 153.518 201.267 153.54C195.016 153.947 187.043 153.305 178.474 152.281C178.15 152.242 177.883 152.008 177.801 151.692C176.638 147.162 175.298 143.233 173.792 139.135Z" fill="#0C296E" stroke="#0C296E" stroke-linejoin="round" />
    <path d="M194.232 141.133C195.616 140.065 197.15 139.19 198.774 138.54" stroke="white" stroke-miterlimit="10" stroke-linecap="round" stroke-linejoin="round" />
    <path d="M174.083 139.834L172.899 134.74" stroke="white" stroke-miterlimit="10" stroke-linecap="round" stroke-linejoin="round" />
    <path d="M206.458 129.669L203.691 123.058" stroke="white" stroke-miterlimit="10" stroke-linecap="round" stroke-linejoin="round" />
    <path d="M60.6213 299.307C50.6552 310.948 93.1376 322.234 101.184 323.865C110.622 325.777 120.826 325.598 130.697 324.909C130.697 324.909 114.543 330.313 73.9079 330.313C62.3849 330.313 41.927 332.952 49.7286 312.656C52.7299 306.195 60.6213 299.307 60.6213 299.307Z" fill="#0C296E" />
    <path d="M293.624 155.804C298.206 131.541 248.033 118.929 248.033 118.929C246.672 131.372 245.506 142.26 243.917 159.358C243.917 159.358 288.037 170.226 283.074 197.094" fill="#3370FF" />
    <path d="M332.85 149.546C332.85 153.225 332.923 142.033 332.85 141.273C332.704 136.545 329.497 133.33 323.162 130.504C323.143 132.272 323.125 135.621 323.125 137.9C328.497 142.342 329.923 144.33 329.399 151.732" fill="white" />
    <path d="M332.85 149.546C332.85 153.225 332.923 142.033 332.85 141.273C332.704 136.545 329.497 133.33 323.162 130.504C323.143 132.272 323.125 135.621 323.125 137.9C328.497 142.342 329.923 144.33 329.399 151.732" stroke="white" stroke-linejoin="round" />
    <path d="M332.848 141.271C333.665 149.294 332.22 156.836 332.22 156.836C330.001 161.855 326.96 167.799 322.995 172.953C323.556 166.116 322.733 160.713 322.733 160.713C326.531 156.094 330.415 151.324 332.22 145.623C333.013 142.949 332.848 141.271 332.848 141.271Z" fill="#3370FF" />
    <path d="M294.271 94.6145C293.151 95.2439 292.97 97.0458 293.945 97.8827C294.917 98.7197 296.679 98.2804 297.141 97.0838C297.602 95.8872 296.593 94.3828 295.309 94.3551L294.271 94.6145Z" stroke="white" stroke-linecap="round" stroke-linejoin="round" />
    <path d="M296.608 240.008C306.892 234.112 317.294 228.813 324.768 218.479L323.897 227.098C323.897 227.098 313.564 243.501 295.282 253.109C296.053 245.327 296.608 240.008 296.608 240.008Z" fill="#00D6B9" />
    <path d="M254.055 148.146C259.86 150.121 265.231 153.14 269.755 156.972" stroke="white" stroke-miterlimit="10" stroke-linecap="round" stroke-linejoin="round" />
    <path d="M255.713 136.836C264.478 139.696 272.569 144.234 279.301 150.058" stroke="white" stroke-miterlimit="10" stroke-linecap="round" stroke-linejoin="round" />
    <path d="M25.3789 193.994C29.3878 187.839 34.4996 179.115 40.5207 174.888L42.0275 187.15C42.0275 187.15 33.3338 199.044 30.6651 207.208C26.2868 197.296 25.3789 193.994 25.3789 193.994Z" fill="white" stroke="white" stroke-linejoin="round" />
    <path d="M305.41 198.968C310.386 198.055 315.542 198.138 320.483 199.217C323.31 199.833 326.294 200.943 327.817 203.399C330.448 207.642 327.335 213.079 323.924 216.728C310.972 230.572 292.818 238.142 275.248 245.319L274.543 252.298C274.543 252.298 297.246 242.753 315.274 231.405C323.689 225.796 327.141 221.096 327.141 221.096L328.761 207.715" stroke="white" stroke-linecap="round" stroke-linejoin="round" />
    <path d="M303.886 315.686C311.918 317.127 318.9 322.804 321.481 329.998H298.428L303.886 315.686Z" fill="#00D6B9" />
    <path d="M35.0469 192.934C47.1678 177.409 67.1839 161.606 89.2877 151.495V162.736C89.2877 162.736 52.6066 177.548 36.9367 201.323C36.371 198.232 35.0469 192.934 35.0469 192.934Z" stroke="white" stroke-linecap="round" stroke-linejoin="round" />
    <path d="M303.695 309.247C309.895 309.838 316.345 310.513 321.633 313.791C326.921 317.07 330.62 323.793 328.382 329.586" stroke="#0C296E" stroke-linecap="round" stroke-linejoin="round" />
    <path d="M50.2317 104.719C54.2199 105.394 57.275 108.655 59.3538 112.117C59.3538 112.117 59.6057 109.468 62.5585 109.256C67.1136 108.93 66.8144 114.601 66.8144 114.601C66.8144 114.601 74.8866 107.444 82.0557 103.02C76.9934 80.0958 77.1687 48.8855 77.1687 48.8855C77.1687 48.8855 55.0427 53.9577 39.1924 75.5742C44.8475 93.1523 43.8006 90.2276 48.1372 104.617C48.1372 104.617 49.5388 104.602 50.2317 104.719Z" fill="#14C0FF" />
    <path d="M49.8354 82.9844C52.3945 80.6063 60.3118 73.9312 66.3157 70.0933" stroke="#0C296E" stroke-linecap="round" stroke-linejoin="round" />
    <path d="M52.4771 89.5476C53.5558 88.6332 60.6463 82.637 61.7251 81.7227" stroke="#0C296E" stroke-linecap="round" stroke-linejoin="round" />
    <g filter="url(#filter0_f)">
        <path d="M50.9426 104.707C54.5269 105.317 57.2727 108.244 59.1409 111.355C59.1409 111.355 59.3674 108.974 62.0247 108.78C66.3273 108.473 65.8461 113.622 65.8461 113.622L54.6189 123.429L48.6665 104.637C49.4369 104.562 50.2023 104.581 50.9426 104.707Z" fill="#14C0FF" />
        <path d="M50.9426 104.707C54.5269 105.317 57.2727 108.244 59.1409 111.355C59.1409 111.355 59.3674 108.974 62.0247 108.78C66.3273 108.473 65.8461 113.622 65.8461 113.622L54.6189 123.429L48.6665 104.637C49.4369 104.562 50.2023 104.581 50.9426 104.707Z" stroke="#14C0FF" stroke-linecap="round" stroke-linejoin="round" />
    </g>
    <path d="M59.3522 112.117C57.2735 108.655 54.2184 105.398 50.2302 104.719C44.3787 103.728 37.1162 108.704 36.4704 114.671C36.0137 118.886 37.0019 121.562 40.2656 124.278C40.2656 124.278 35.7617 126.507 35.7617 131.039C35.7617 135.878 41.8286 136.462 41.8286 136.462L66.8128 114.64C66.8128 114.64 67.3483 108.91 62.5609 109.252C59.6042 109.468 59.3522 112.117 59.3522 112.117Z" stroke="white" stroke-linecap="round" stroke-linejoin="round" />
    <g filter="url(#filter1_f)">
        <path d="M111.26 227.26C115.097 230.919 120.872 235.183 129.527 239.938C147.133 249.608 178.825 250.289 194.821 248.048C205.962 246.489 205.06 242.778 205.06 242.778C199.234 243.036 192.22 238.533 185.103 233.964C178.389 229.654 171.582 225.284 165.592 224.794C161.438 224.453 157.297 225.253 153.162 226.052C151.788 226.318 150.414 226.583 149.041 226.806C143.535 227.702 137.619 227.837 132.796 224.797C131.679 224.093 130.658 223.242 129.7 222.299C123.475 223.78 117.301 225.413 111.26 227.26Z" fill="#0C296E" />
    </g>
    <path d="M84.5945 293.483C83.82 293.115 85.8904 289.933 89.223 280.676L106.659 272.491C89.7378 292.141 87.1366 294.695 84.5945 293.483Z" fill="white" stroke="#0C296E" stroke-linecap="round" stroke-linejoin="round" />
    <path d="M192.142 249.865C193.279 258.126 194.616 269.052 195.466 284.778C195.742 289.864 195.2 293.687 192.142 298.741C187.683 306.121 193.448 302.935 200.722 318.109C204.842 326.71 208.325 327.867 205.468 316.017C203.568 308.128 202.421 294.759 203.292 284.438C204.077 275.222 205.171 254.495 205.468 246.159" fill="white" />
    <path d="M192.142 249.865C193.279 258.126 194.616 269.052 195.466 284.778C195.742 289.864 195.2 293.687 192.142 298.741C187.683 306.121 193.448 302.935 200.722 318.109C204.842 326.71 208.325 327.867 205.468 316.017C203.568 308.128 202.421 294.759 203.292 284.438C204.077 275.222 205.171 254.495 205.468 246.159" stroke="#0C296E" stroke-linecap="round" stroke-linejoin="round" />
    <g filter="url(#filter2_f)">
        <path d="M207.043 206.172C206.692 215.267 206.177 224.745 205.715 233.231C205.523 236.754 205.341 240.105 205.184 243.187C199.358 243.446 192.345 238.943 185.227 234.374C178.513 230.063 171.706 225.694 165.716 225.203C161.562 224.863 157.421 225.663 153.286 226.462C151.912 226.728 150.538 226.993 149.165 227.216C143.659 228.112 137.743 228.247 132.92 225.207C131.802 224.502 130.781 223.651 129.823 222.708C136.119 221.21 142.467 219.866 148.781 218.612C153.187 217.737 157.615 216.889 162.049 216.039C177.205 213.136 192.43 210.22 207.043 206.172Z" fill="#3370FF" />
    </g>
    <path d="M316.477 112.246L310.773 106.124L314.034 103.14L302.109 99.7747C302.338 100.183 305.162 111.264 305.162 111.264L308.375 108.321L314.093 114.456L316.477 112.246Z" fill="white" stroke="white" stroke-linejoin="round" />
    <g filter="url(#filter3_f)">
        <path d="M131.805 225.835L108.814 258.899C108.814 258.899 104.689 263.112 99.9486 263.33C97.5025 263.442 93.6477 268.206 89.3403 281.039L98.8403 276.039L105.34 273.539C130.164 246.312 150.844 227.552 150.844 227.552" fill="white" />
    </g>
    <g filter="url(#filter4_f)">
        <path d="M131.805 225.835L108.814 258.899C108.814 258.899 104.688 263.112 99.9481 263.33C97.5021 263.442 94.6472 267.706 90.3398 280.539M105.84 273.539C130.664 246.312 150.844 227.552 150.844 227.552" stroke="#0C296E" stroke-miterlimit="10" stroke-linecap="round" stroke-linejoin="round" />
    </g>
    <g filter="url(#filter5_f)">
        <path d="M190.508 238.986C190.508 238.986 190.734 241.544 190.866 242.519C191.172 244.778 191.34 250.039 191.34 250.039L205.34 246.039L204.363 242.795" fill="white" />
    </g>
    <g filter="url(#filter6_f)">
        <path d="M190.508 238.986C190.508 238.986 190.734 241.545 190.866 242.519C191.172 244.778 191.55 248.547 191.55 248.547M204.299 244.623L204.363 242.795" stroke="#0C296E" stroke-miterlimit="10" stroke-linecap="round" stroke-linejoin="round" />
    </g>
    <path opacity="0.5" d="M47.728 321.694C47.8564 308.956 53.4817 305.008 65.0775 296.57C91.4647 277.368 113.241 269.234 142.785 262.151C172.33 255.068 201.73 249.252 232.542 235.955C263.353 222.659 279.473 210.81 283.172 198.284L294.173 153.921C284.787 193.705 178.726 212.294 148.278 218.342C117.637 224.429 86.1838 232.616 63.7868 250.392C56.3581 256.289 50.0814 260.546 46.2508 278.018C44.2766 293.927 42.3468 302.996 47.728 321.694Z" fill="white" />
    <path d="M52.0452 308.423C49.7395 312.041 48.4727 316.036 48.0847 321.025C43.4354 304.551 44.7396 294.127 46.4977 280.075C46.5789 279.426 46.6611 278.769 46.7438 278.103C48.4483 270.237 50.9487 264.877 53.9254 260.76C56.906 256.637 60.3813 253.734 64.0888 250.791C87.2738 233.95 117.755 224.916 148.375 218.834C149.957 218.519 151.744 218.171 153.712 217.787C170.665 214.483 201.029 208.566 229.28 199.258C245.044 194.064 260.177 187.807 271.966 180.343C280.863 174.711 287.905 168.359 291.848 161.217L282.689 198.154C280.881 204.265 276.024 210.274 267.726 216.43C259.426 222.587 247.734 228.855 232.343 235.497C206.107 246.819 180.901 252.707 155.708 258.592C151.363 259.608 147.018 260.623 142.668 261.665C113.079 268.759 91.2376 276.915 64.7829 296.166L65.0771 296.57L64.7828 296.166C58.972 300.395 54.7865 304.122 52.0452 308.423Z" stroke="white" stroke-linecap="round" stroke-linejoin="round" />
    <path d="M128.775 72.0432C124.351 73.3298 119.808 75.1266 116.27 79.9261C113.183 84.1133 111.8 86.735 111.273 93.4098L111.259 73.7069C111.259 69.3544 112.731 65.6762 115.018 63.1278C119.342 58.3075 125.399 54.6765 128.775 53.1809V72.0432Z" fill="white" stroke="white" stroke-linejoin="round" />
    <path d="M111.795 77.2213C113.651 81.7456 117.769 85.308 122.454 87.9675C128.257 91.2622 135.053 93.2444 139.904 93.9913V119.035C139.815 118.999 139.718 118.96 139.613 118.916C138.991 118.659 138.092 118.273 136.992 117.755C134.792 116.719 131.789 115.162 128.583 113.075C122.18 108.906 115.028 102.667 111.772 94.3127C111.765 88.0585 111.776 82.8077 111.788 79.1152C111.79 78.4289 111.792 77.7964 111.795 77.2213Z" stroke="white" stroke-linecap="round" stroke-linejoin="round" />
    <path d="M157.169 28.0826C157.212 28.5911 157.206 29.1269 157.153 29.691C158.348 26.4942 159.011 22.7741 157.191 20.643C155.963 19.2022 153.127 17.2717 148.312 16.5253L148.325 17.0335M157.169 28.0826C157.393 27.3346 157.574 26.5783 157.687 25.8397C157.991 23.8564 157.793 22.1175 156.81 20.9678L156.81 20.9673C155.682 19.643 152.991 17.7751 148.325 17.0335M157.169 28.0826C157.017 28.5872 156.846 29.088 156.661 29.5771C157.062 25.0103 154.131 22.7321 147.943 21.414M157.169 28.0826C157.054 26.73 156.595 25.5703 155.766 24.5836C154.319 22.8608 151.824 21.7702 148.432 21.0091M148.325 17.0335C148.16 17.0073 147.993 16.9825 147.823 16.9592L147.943 21.414M148.325 17.0335L148.432 21.0091M148.432 21.0091C148.305 20.9806 148.177 20.9525 148.047 20.9249L147.943 21.414M148.432 21.0091L148.443 21.4005L147.943 21.414" stroke="white" stroke-linecap="round" stroke-linejoin="round" />
    <path d="M158.314 23.491C158.314 23.491 158.992 43.4232 156.242 48.5652C150.369 59.5425 136.682 67.6805 136.682 67.6805V48.5652C149.221 42.3818 152.378 39.0053 156.242 30.8387C156.242 30.8387 157.867 27.696 158.314 23.491Z" fill="white" stroke="white" stroke-linejoin="round" />
    <defs>
        <filter id="filter0_f" x="44.1665" y="100.093" width="26.1957" height="27.836" filterUnits="userSpaceOnUse" color-interpolation-filters="sRGB">
            <feFlood flood-opacity="0" result="BackgroundImageFix" />
            <feBlend mode="normal" in="SourceGraphic" in2="BackgroundImageFix" result="shape" />
            <feGaussianBlur stdDeviation="2" result="effect1_foregroundBlur" />
        </filter>
        <filter id="filter1_f" x="110.26" y="221.299" width="95.817" height="28.8138" filterUnits="userSpaceOnUse" color-interpolation-filters="sRGB">
            <feFlood flood-opacity="0" result="BackgroundImageFix" />
            <feBlend mode="normal" in="SourceGraphic" in2="BackgroundImageFix" result="shape" />
            <feGaussianBlur stdDeviation="0.5" result="effect1_foregroundBlur" />
        </filter>
        <filter id="filter2_f" x="127.823" y="204.172" width="81.2198" height="41.0262" filterUnits="userSpaceOnUse" color-interpolation-filters="sRGB">
            <feFlood flood-opacity="0" result="BackgroundImageFix" />
            <feBlend mode="normal" in="SourceGraphic" in2="BackgroundImageFix" result="shape" />
            <feGaussianBlur stdDeviation="1" result="effect1_foregroundBlur" />
        </filter>
        <filter id="filter3_f" x="86.3403" y="222.835" width="67.5041" height="61.2046" filterUnits="userSpaceOnUse" color-interpolation-filters="sRGB">
            <feFlood flood-opacity="0" result="BackgroundImageFix" />
            <feBlend mode="normal" in="SourceGraphic" in2="BackgroundImageFix" result="shape" />
            <feGaussianBlur stdDeviation="1.5" result="effect1_foregroundBlur" />
        </filter>
        <filter id="filter4_f" x="86.8398" y="222.335" width="67.5043" height="61.7048" filterUnits="userSpaceOnUse" color-interpolation-filters="sRGB">
            <feFlood flood-opacity="0" result="BackgroundImageFix" />
            <feBlend mode="normal" in="SourceGraphic" in2="BackgroundImageFix" result="shape" />
            <feGaussianBlur stdDeviation="1.5" result="effect1_foregroundBlur" />
        </filter>
        <filter id="filter5_f" x="183.382" y="232.158" width="25.1284" height="25.03" filterUnits="userSpaceOnUse" color-interpolation-filters="sRGB">
            <feFlood flood-opacity="0" result="BackgroundImageFix" />
            <feBlend mode="normal" in="SourceGraphic" in2="BackgroundImageFix" result="shape" />
            <feGaussianBlur stdDeviation="1" result="effect1_foregroundBlur" />
        </filter>
        <filter id="filter6_f" x="183.514" y="231.452" width="24.4309" height="24.3628" filterUnits="userSpaceOnUse" color-interpolation-filters="sRGB">
            <feFlood flood-opacity="0" result="BackgroundImageFix" />
            <feBlend mode="normal" in="SourceGraphic" in2="BackgroundImageFix" result="shape" />
            <feGaussianBlur stdDeviation="1" result="effect1_foregroundBlur" />
        </filter>
    </defs>
</svg>
    